<svg width="696" height="707" viewBox="0 0 696 707" fill="none" xmlns="http://www.w3.org/2000/svg">
<path d="M0 202.615V176.725H34.0643V98.2121C34.0643 92.0211 31.0614 88.9256 25.0555 88.9256H2.81523V63.0358H36.3165C44.0114 63.0358 50.2988 65.2871 55.1785 69.7897C60.0582 74.1046 62.4981 80.2019 62.4981 88.0813V91.4582H63.9057C65.9702 80.9523 70.3807 73.0728 77.1373 67.8198C84.0815 62.3792 94.1225 59.6589 107.26 59.6589H128.937V91.1768H98.533C87.4598 91.1768 78.9203 95.0228 72.9144 102.715C66.9086 110.407 63.9057 119.599 63.9057 130.293V176.725H107.26V202.615H0Z" fill="#ABB2BF" fill-opacity="0.2"/>
<path d="M202.144 205.992C188.631 205.992 176.713 202.99 166.39 196.987C156.068 190.796 147.997 182.26 142.179 171.379C136.361 160.498 133.452 147.834 133.452 133.388C133.452 118.755 136.267 105.904 141.898 94.8352C147.716 83.7664 155.786 75.1365 166.109 68.9454C176.619 62.7544 188.724 59.6589 202.425 59.6589C215.938 59.6589 227.575 62.7544 237.334 68.9454C247.094 74.9489 254.601 83.016 259.856 93.1467C265.299 103.277 268.02 114.44 268.02 126.635C268.02 128.511 268.02 130.574 268.02 132.826C268.02 134.889 267.926 137.234 267.739 139.861H162.731C163.669 152.806 167.892 162.655 175.399 169.409C182.906 175.975 191.727 179.258 201.862 179.258C210.683 179.258 217.627 177.476 222.695 173.911C227.95 170.159 231.797 165.094 234.237 158.715H264.36C260.982 172.035 253.944 183.292 243.246 192.484C232.548 201.49 218.847 205.992 202.144 205.992ZM202.144 85.5486C192.947 85.5486 184.783 88.3627 177.651 93.9909C170.519 99.4315 165.921 107.123 163.857 117.067H238.179C237.428 107.686 233.768 100.088 227.199 94.2723C220.63 88.4565 212.279 85.5486 202.144 85.5486Z" fill="#ABB2BF" fill-opacity="0.2"/>
<path d="M328.646 205.992C317.572 205.992 308.282 204.116 300.775 200.364C293.268 196.424 287.637 191.265 283.884 184.886C280.13 178.32 278.253 171.191 278.253 163.499C278.253 149.804 283.227 139.11 293.174 131.418C303.309 123.727 317.572 119.881 335.965 119.881H372V116.785C372 95.7732 362.241 85.2672 342.722 85.2672C334.652 85.2672 327.801 87.0495 322.171 90.614C316.728 93.9909 313.068 99.5253 311.191 107.217H281.35C282.851 92.5839 289.139 81.0461 300.212 72.6038C311.473 63.9739 325.643 59.6589 342.722 59.6589C363.367 59.6589 378.381 64.7243 387.766 74.8551C397.15 84.9858 401.842 98.9625 401.842 116.785V202.615H376.505L373.971 182.072H372C367.871 188.638 362.71 194.267 356.516 198.957C350.323 203.647 341.033 205.992 328.646 205.992ZM334.276 180.947C346.475 180.947 355.578 177.288 361.584 169.972C367.777 162.467 371.156 152.993 371.719 141.549H339.062C328.364 141.549 320.763 143.331 316.259 146.896C311.942 150.273 309.784 155.057 309.784 161.248C309.784 167.439 311.942 172.317 316.259 175.881C320.763 179.258 326.769 180.947 334.276 180.947Z" fill="#ABB2BF" fill-opacity="0.2"/>
<path d="M410.132 202.615V176.725H456.865V35.1762C456.865 28.9852 453.862 25.8897 447.856 25.8897H414.073V0H453.205C464.09 0 472.348 2.9079 477.979 8.72371C483.797 14.3519 486.706 22.6066 486.706 33.4878V176.725H533.72V202.615H410.132Z" fill="#ABB2BF" fill-opacity="0.2"/>
<path d="M35.4726 413.954V274.375H61.3727L63.9065 295.199H65.3141C69.0677 288.445 74.8858 282.723 82.7685 278.033C90.6511 273.343 99.7537 270.998 110.076 270.998C127.155 270.998 140.011 276.157 148.645 286.475C157.278 296.794 161.595 311.99 161.595 332.064V413.954H131.753V335.722C131.753 324.09 129.314 315.085 124.434 308.707C119.554 302.328 111.859 299.139 101.349 299.139C91.0265 299.139 82.3931 302.609 75.4489 309.551C68.6923 316.492 65.3141 326.529 65.3141 339.662V413.954H35.4726Z" fill="#ABB2BF" fill-opacity="0.2"/>
<path d="M239.362 417.331C226.036 417.331 214.119 414.329 203.608 408.326C193.098 402.323 184.84 393.88 178.834 382.999C172.829 371.93 169.826 358.985 169.826 344.164C169.826 329.343 172.829 316.492 178.834 305.611C184.84 294.542 193.098 286.006 203.608 280.003C214.119 274 226.13 270.998 239.643 270.998C253.157 270.998 265.074 274 275.397 280.003C285.907 286.006 294.071 294.542 299.889 305.611C305.895 316.492 308.898 329.343 308.898 344.164C308.898 358.985 305.895 371.93 299.889 382.999C293.883 393.88 285.625 402.323 275.115 408.326C264.793 414.329 252.875 417.331 239.362 417.331ZM239.362 388.909C246.494 388.909 253.063 387.314 259.068 384.125C265.074 380.935 269.86 376.057 273.426 369.491C277.18 362.737 279.057 354.295 279.057 344.164C279.057 333.846 277.18 325.404 273.426 318.837C269.86 312.271 265.074 307.393 259.068 304.204C253.25 301.015 246.775 299.42 239.643 299.42C232.512 299.42 225.943 301.015 219.937 304.204C213.931 307.393 209.051 312.271 205.298 318.837C201.732 325.404 199.949 333.846 199.949 344.164C199.949 359.548 203.796 370.898 211.491 378.215C219.374 385.344 228.664 388.909 239.362 388.909Z" fill="#ABB2BF" fill-opacity="0.2"/>
<path d="M364.257 252.988C357.688 252.988 352.151 250.924 347.647 246.797C343.33 242.482 341.172 237.229 341.172 231.038C341.172 224.847 343.33 219.687 347.647 215.56C352.151 211.433 357.688 209.369 364.257 209.369C371.013 209.369 376.55 211.433 380.867 215.56C385.371 219.687 387.623 224.847 387.623 231.038C387.623 237.229 385.371 242.482 380.867 246.797C376.55 250.924 371.013 252.988 364.257 252.988ZM308.234 413.954V388.064H352.151V309.551C352.151 303.36 349.148 300.264 343.143 300.264H312.175V274.375H348.492C360.128 274.375 368.574 277.095 373.829 282.536C379.271 287.789 381.993 296.231 381.993 307.863V388.064H425.91V413.954H308.234Z" fill="#ABB2BF" fill-opacity="0.2"/>
<path d="M490.966 417.331C472.573 417.331 457.934 413.016 447.048 404.386C436.163 395.756 429.969 384.312 428.468 370.054H459.154C460.28 376.62 463.564 381.967 469.007 386.095C474.637 390.222 482.051 392.286 491.247 392.286C500.068 392.286 506.825 390.503 511.517 386.939C516.397 383.187 518.836 378.872 518.836 373.994C518.836 366.865 515.927 361.987 510.109 359.361C504.479 356.734 496.127 354.764 485.054 353.451C475.482 352.325 466.755 350.168 458.872 346.978C451.177 343.602 445.077 339.099 440.573 333.471C436.069 327.655 433.817 320.432 433.817 311.802C433.817 299.608 438.602 289.758 448.174 282.254C457.746 274.75 471.071 270.998 488.15 270.998C505.229 270.998 518.461 274.844 527.845 282.536C537.229 290.227 542.672 300.733 544.173 314.054H515.458C514.707 308.425 511.798 304.017 506.731 300.827C501.664 297.45 495.376 295.762 487.869 295.762C480.174 295.762 474.074 297.263 469.57 300.264C465.066 303.079 462.813 306.831 462.813 311.521C462.813 321.652 473.699 327.843 495.47 330.094C505.793 331.219 514.989 333.189 523.059 336.004C531.13 338.63 537.511 342.851 542.203 348.667C546.895 354.295 549.241 362.268 549.241 372.587C549.429 381.029 546.989 388.627 541.921 395.381C537.042 402.135 530.191 407.482 521.37 411.421C512.737 415.361 502.602 417.331 490.966 417.331Z" fill="#ABB2BF" fill-opacity="0.2"/>
<path d="M629.124 417.331C615.611 417.331 603.692 414.329 593.37 408.326C583.047 402.135 574.977 393.599 569.159 382.718C563.34 371.836 560.431 359.173 560.431 344.727C560.431 330.094 563.247 317.243 568.877 306.174C574.695 295.105 582.766 286.475 593.088 280.284C603.599 274.093 615.705 270.998 629.405 270.998C642.919 270.998 654.555 274.093 664.314 280.284C674.074 286.288 681.581 294.355 686.836 304.486C692.279 314.616 695 325.779 695 337.973C695 339.849 695 341.913 695 344.164C695 346.228 694.906 348.573 694.719 351.2H589.71C590.648 364.144 594.872 373.994 602.379 380.748C609.886 387.314 618.708 390.597 628.842 390.597C637.663 390.597 644.607 388.815 649.675 385.25C654.93 381.498 658.778 376.433 661.217 370.054H691.34C687.962 383.374 680.924 394.631 670.226 403.823C659.528 412.828 645.828 417.331 629.124 417.331ZM629.124 296.887C619.927 296.887 611.763 299.702 604.631 305.33C597.499 310.77 592.901 318.462 590.836 328.405H665.159C664.408 319.025 660.748 311.427 654.179 305.611C647.61 299.795 639.259 296.887 629.124 296.887Z" fill="#ABB2BF" fill-opacity="0.2"/>
<path d="M4.47469e-05 635.623V609.733H46.7328V468.184C46.7328 461.993 43.7299 458.898 37.7241 458.898H3.94136V433.008H43.073C53.9586 433.008 62.2166 435.916 67.8471 441.732C73.6652 447.36 76.5743 455.614 76.5743 466.496V609.733H123.589V635.623H4.47469e-05Z" fill="#ABB2BF" fill-opacity="0.2"/>
<path d="M182.675 639C171.602 639 162.311 637.124 154.804 633.372C147.297 629.432 141.666 624.273 137.913 617.894C134.159 611.328 132.282 604.199 132.282 596.507C132.282 582.812 137.256 572.118 147.203 564.426C157.338 556.735 171.602 552.889 189.994 552.889H226.029V549.793C226.029 528.781 216.27 518.275 196.751 518.275C188.681 518.275 181.83 520.057 176.2 523.622C170.757 526.999 167.097 532.533 165.22 540.225H135.379C136.88 525.592 143.168 514.054 154.241 505.612C165.502 496.982 179.672 492.667 196.751 492.667C217.396 492.667 232.411 497.732 241.795 507.863C251.179 517.994 255.871 531.97 255.871 549.793V635.623H230.534L228 615.08H226.029C221.9 621.646 216.739 627.275 210.546 631.965C204.352 636.655 195.062 639 182.675 639ZM188.305 613.955C200.505 613.955 209.607 610.296 215.613 602.98C221.807 595.475 225.185 586.001 225.748 574.557H193.091C182.393 574.557 174.792 576.339 170.288 579.904C165.971 583.281 163.813 588.065 163.813 594.256C163.813 600.447 165.971 605.325 170.288 608.889C174.792 612.266 180.798 613.955 188.305 613.955Z" fill="#ABB2BF" fill-opacity="0.2"/>
<path d="M340.715 639C330.392 639 321.665 636.936 314.533 632.809C307.589 628.494 302.24 622.584 298.486 615.08H296.797L294.263 635.623H268.645V433.008H298.486V514.054C301.865 508.426 307.214 503.454 314.533 499.139C321.853 494.824 330.58 492.667 340.715 492.667C352.351 492.667 362.767 495.481 371.964 501.109C381.16 506.55 388.386 514.711 393.641 525.592C399.084 536.473 401.805 549.887 401.805 565.833C401.805 581.78 399.084 595.194 393.641 606.075C388.386 616.956 381.16 625.211 371.964 630.839C362.767 636.28 352.351 639 340.715 639ZM334.521 610.578C345.219 610.578 354.04 606.919 360.984 599.603C368.116 592.098 371.682 580.936 371.682 566.115C371.682 551.106 368.116 539.85 360.984 532.346C354.04 524.841 345.219 521.089 334.521 521.089C323.823 521.089 314.909 524.841 307.777 532.346C300.832 539.662 297.36 550.825 297.36 565.833C297.36 580.654 300.832 591.817 307.777 599.321C314.909 606.825 323.823 610.578 334.521 610.578Z" fill="#ABB2BF" fill-opacity="0.2"/>
<path d="M471.904 639C453.512 639 438.872 634.685 427.987 626.055C417.101 617.425 410.908 605.981 409.406 591.723H440.092C441.218 598.289 444.503 603.636 449.946 607.763C455.576 611.891 462.99 613.955 472.186 613.955C481.007 613.955 487.764 612.172 492.456 608.608C497.335 604.856 499.775 600.541 499.775 595.663C499.775 588.534 496.866 583.656 491.048 581.03C485.418 578.403 477.066 576.433 465.992 575.12C456.421 573.994 447.693 571.837 439.811 568.648C432.116 565.271 426.016 560.768 421.512 555.14C417.007 549.324 414.755 542.101 414.755 533.471C414.755 521.277 419.541 511.427 429.113 503.923C438.685 496.419 452.01 492.667 469.089 492.667C486.168 492.667 499.4 496.513 508.784 504.205C518.168 511.896 523.611 522.402 525.112 535.722H496.397C495.646 530.094 492.737 525.686 487.67 522.496C482.602 519.119 476.315 517.431 468.808 517.431C461.113 517.431 455.013 518.932 450.509 521.933C446.004 524.748 443.752 528.5 443.752 533.19C443.752 543.321 454.638 549.512 476.409 551.763C486.731 552.889 495.928 554.858 503.998 557.672C512.068 560.299 518.45 564.52 523.142 570.336C527.834 575.964 530.18 583.937 530.18 594.256C530.367 602.698 527.927 610.296 522.86 617.05C517.98 623.804 511.13 629.151 502.309 633.09C493.676 637.03 483.541 639 471.904 639Z" fill="#ABB2BF" fill-opacity="0.2"/>
<path d="M2 270.615V244.725H36.0153V166.212C36.0153 160.021 33.0167 156.926 27.0195 156.926H4.81118V131.036H38.2642C45.9481 131.036 52.2264 133.287 57.0991 137.79C61.9718 142.105 64.4082 148.202 64.4082 156.081V159.458H65.8137C67.8753 148.952 72.2795 141.073 79.0263 135.82C85.9605 130.379 95.9871 127.659 109.106 127.659H130.752V159.177H100.391C89.3339 159.177 80.8067 163.023 74.8095 170.715C68.8123 178.407 65.8137 187.599 65.8137 198.293V244.725H109.106V270.615H2Z" fill="#F9C859"/>
<path d="M203.853 273.992C190.359 273.992 178.459 270.99 168.151 264.987C157.843 258.796 149.785 250.26 143.975 239.379C138.165 228.498 135.26 215.834 135.26 201.388C135.26 186.755 138.071 173.904 143.694 162.835C149.503 151.766 157.562 143.136 167.87 136.945C178.365 130.754 190.453 127.659 204.134 127.659C217.628 127.659 229.247 130.754 238.993 136.945C248.738 142.949 256.234 151.016 261.482 161.147C266.917 171.277 269.634 182.44 269.634 194.635C269.634 196.511 269.634 198.574 269.634 200.826C269.634 202.889 269.541 205.234 269.353 207.861H164.496C165.433 220.806 169.65 230.655 177.147 237.409C184.643 243.975 193.452 247.258 203.572 247.258C212.38 247.258 219.314 245.476 224.374 241.911C229.622 238.159 233.464 233.094 235.9 226.715H265.98C262.606 240.035 255.579 251.292 244.896 260.484C234.214 269.49 220.533 273.992 203.853 273.992ZM203.853 153.549C194.67 153.549 186.517 156.363 179.396 161.991C172.274 167.432 167.682 175.123 165.621 185.067H239.836C239.086 175.686 235.432 168.088 228.872 162.272C222.313 156.457 213.973 153.549 203.853 153.549Z" fill="#F9C859"/>
<path d="M330.173 273.992C319.116 273.992 309.839 272.116 302.342 268.364C294.846 264.424 289.223 259.265 285.475 252.886C281.727 246.32 279.853 239.191 279.853 231.499C279.853 217.804 284.819 207.11 294.752 199.418C304.872 191.727 319.116 187.881 337.482 187.881H373.465V184.785C373.465 163.773 363.72 153.267 344.229 153.267C336.17 153.267 329.329 155.049 323.707 158.614C318.272 161.991 314.618 167.525 312.744 175.217H282.945C284.444 160.584 290.723 149.046 301.78 140.604C313.025 131.974 327.174 127.659 344.229 127.659C364.844 127.659 379.837 132.724 389.208 142.855C398.578 152.986 403.264 166.963 403.264 184.785V270.615H377.963L375.433 250.072H373.465C369.342 256.638 364.188 262.267 358.003 266.957C351.819 271.647 342.542 273.992 330.173 273.992ZM335.795 248.947C347.977 248.947 357.066 245.288 363.064 237.972C369.248 230.467 372.622 220.993 373.184 209.549H340.574C329.892 209.549 322.302 211.331 317.804 214.896C313.493 218.273 311.338 223.057 311.338 229.248C311.338 235.439 313.493 240.317 317.804 243.881C322.302 247.258 328.299 248.947 335.795 248.947Z" fill="#F9C859"/>
<path d="M411.542 270.615V244.725H458.207V103.176C458.207 96.9852 455.209 93.8897 449.212 93.8897H415.477V68H454.553C465.423 68 473.669 70.9079 479.291 76.7237C485.101 82.3519 488.006 90.6066 488.006 101.488V244.725H534.952V270.615H411.542Z" fill="#F9C859"/>
<path d="M37.4216 481.954V342.375H63.2844L65.8145 363.199H67.2201C70.9683 356.445 76.7781 350.723 84.6494 346.033C92.5207 341.343 101.61 338.998 111.918 338.998C128.972 338.998 141.81 344.157 150.431 354.475C159.052 364.794 163.362 379.99 163.362 400.064V481.954H133.564V403.722C133.564 392.09 131.128 383.085 126.255 376.707C121.382 370.328 113.698 367.139 103.203 367.139C92.8955 367.139 84.2746 370.609 77.3403 377.551C70.5935 384.492 67.2201 394.529 67.2201 407.662V481.954H37.4216Z" fill="#F9C859"/>
<path d="M241.017 485.331C227.711 485.331 215.811 482.329 205.316 476.326C194.82 470.323 186.574 461.88 180.577 450.999C174.58 439.93 171.581 426.985 171.581 412.164C171.581 397.343 174.58 384.492 180.577 373.611C186.574 362.542 194.82 354.006 205.316 348.003C215.811 342 227.805 338.998 241.299 338.998C254.792 338.998 266.693 342 277.001 348.003C287.496 354.006 295.648 362.542 301.458 373.611C307.455 384.492 310.454 397.343 310.454 412.164C310.454 426.985 307.455 439.93 301.458 450.999C295.461 461.88 287.215 470.323 276.719 476.326C266.412 482.329 254.511 485.331 241.017 485.331ZM241.017 456.909C248.139 456.909 254.699 455.314 260.696 452.125C266.693 448.935 271.472 444.057 275.033 437.491C278.781 430.737 280.655 422.295 280.655 412.164C280.655 401.846 278.781 393.404 275.033 386.837C271.472 380.271 266.693 375.393 260.696 372.204C254.886 369.015 248.42 367.42 241.299 367.42C234.177 367.42 227.618 369.015 221.62 372.204C215.623 375.393 210.75 380.271 207.002 386.837C203.441 393.404 201.661 401.846 201.661 412.164C201.661 427.548 205.503 438.898 213.187 446.215C221.058 453.344 230.335 456.909 241.017 456.909Z" fill="#F9C859"/>
<path d="M365.733 320.988C359.173 320.988 353.645 318.924 349.147 314.797C344.836 310.482 342.681 305.229 342.681 299.038C342.681 292.847 344.836 287.687 349.147 283.56C353.645 279.433 359.173 277.369 365.733 277.369C372.48 277.369 378.008 279.433 382.319 283.56C386.817 287.687 389.066 292.847 389.066 299.038C389.066 305.229 386.817 310.482 382.319 314.797C378.008 318.924 372.48 320.988 365.733 320.988ZM309.79 481.954V456.064H353.645V377.551C353.645 371.36 350.646 368.264 344.649 368.264H313.726V342.375H349.99C361.61 342.375 370.043 345.095 375.291 350.536C380.726 355.789 383.443 364.231 383.443 375.863V456.064H427.298V481.954H309.79Z" fill="#F9C859"/>
<path d="M492.259 485.331C473.893 485.331 459.275 481.016 448.405 472.386C437.535 463.756 431.35 452.312 429.851 438.054H460.493C461.617 444.62 464.897 449.967 470.332 454.095C475.954 458.222 483.357 460.286 492.54 460.286C501.349 460.286 508.096 458.503 512.781 454.939C517.654 451.187 520.09 446.872 520.09 441.994C520.09 434.865 517.185 429.987 511.375 427.361C505.753 424.734 497.413 422.764 486.356 421.451C476.798 420.325 468.083 418.168 460.212 414.978C452.528 411.602 446.437 407.099 441.939 401.471C437.441 395.655 435.192 388.432 435.192 379.802C435.192 367.608 439.971 357.758 449.529 350.254C459.087 342.75 472.394 338.998 489.448 338.998C506.503 338.998 519.715 342.844 529.086 350.536C538.456 358.227 543.891 368.733 545.39 382.054H516.717C515.967 376.425 513.062 372.017 508.002 368.827C502.942 365.45 496.663 363.762 489.167 363.762C481.483 363.762 475.392 365.263 470.894 368.264C466.396 371.079 464.147 374.831 464.147 379.521C464.147 389.652 475.017 395.843 496.757 398.094C507.065 399.219 516.248 401.189 524.307 404.004C532.365 406.63 538.737 410.851 543.423 416.667C548.108 422.295 550.451 430.268 550.451 440.587C550.638 449.029 548.202 456.627 543.142 463.381C538.269 470.135 531.428 475.482 522.62 479.421C513.999 483.361 503.879 485.331 492.259 485.331Z" fill="#F9C859"/>
<path d="M630.219 485.331C616.725 485.331 604.824 482.329 594.516 476.326C584.209 470.135 576.149 461.599 570.34 450.718C564.53 439.836 561.625 427.173 561.625 412.727C561.625 398.094 564.436 385.243 570.059 374.174C575.868 363.105 583.927 354.475 594.235 348.284C604.73 342.093 616.819 338.998 630.5 338.998C643.993 338.998 655.613 342.093 665.358 348.284C675.104 354.288 682.6 362.355 687.848 372.486C693.283 382.616 696 393.779 696 405.973C696 407.849 696 409.913 696 412.164C696 414.228 695.906 416.573 695.719 419.2H590.862C591.799 432.144 596.016 441.994 603.512 448.748C611.009 455.314 619.817 458.597 629.938 458.597C638.746 458.597 645.68 456.815 650.74 453.25C655.988 449.498 659.83 444.433 662.266 438.054H692.346C688.972 451.374 681.944 462.631 671.262 471.823C660.579 480.828 646.898 485.331 630.219 485.331ZM630.219 364.887C621.035 364.887 612.883 367.702 605.761 373.33C598.639 378.77 594.048 386.462 591.986 396.405H666.202C665.452 387.025 661.797 379.427 655.238 373.611C648.679 367.795 640.339 364.887 630.219 364.887Z" fill="#F9C859"/>
<path d="M2.00004 703.623V677.733H48.6656V536.184C48.6656 529.993 45.667 526.898 39.6698 526.898H5.93569V501.008H45.0111C55.881 501.008 64.1271 503.916 69.7494 509.732C75.5592 515.36 78.4641 523.614 78.4641 534.496V677.733H125.411V703.623H2.00004Z" fill="#F9C859"/>
<path d="M184.412 707C173.355 707 164.078 705.124 156.581 701.372C149.085 697.432 143.463 692.273 139.714 685.894C135.966 679.328 134.092 672.199 134.092 664.507C134.092 650.812 139.058 640.118 148.991 632.426C159.111 624.735 173.355 620.889 191.721 620.889H227.704V617.793C227.704 596.781 217.959 586.275 198.468 586.275C190.409 586.275 183.569 588.057 177.946 591.622C172.511 594.999 168.857 600.533 166.983 608.225H137.184C138.684 593.592 144.962 582.054 156.019 573.612C167.264 564.982 181.413 560.667 198.468 560.667C219.083 560.667 234.076 565.732 243.447 575.863C252.817 585.994 257.503 599.97 257.503 617.793V703.623H232.202L229.672 683.08H227.704C223.581 689.646 218.427 695.275 212.243 699.965C206.058 704.655 196.781 707 184.412 707ZM190.034 681.955C202.216 681.955 211.306 678.296 217.303 670.98C223.487 663.475 226.861 654.001 227.423 642.557H194.813C184.131 642.557 176.541 644.339 172.043 647.904C167.732 651.281 165.577 656.065 165.577 662.256C165.577 668.447 167.732 673.325 172.043 676.889C176.541 680.266 182.538 681.955 190.034 681.955Z" fill="#F9C859"/>
<path d="M342.225 707C331.917 707 323.202 704.936 316.081 700.809C309.146 696.494 303.805 690.584 300.057 683.08H298.37L295.84 703.623H270.258V501.008H300.057V582.054C303.43 576.426 308.772 571.454 316.081 567.139C323.39 562.824 332.104 560.667 342.225 560.667C353.844 560.667 364.245 563.481 373.429 569.109C382.612 574.55 389.827 582.711 395.075 593.592C400.51 604.473 403.227 617.887 403.227 633.833C403.227 649.78 400.51 663.194 395.075 674.075C389.827 684.956 382.612 693.211 373.429 698.839C364.245 704.28 353.844 707 342.225 707ZM336.04 678.578C346.722 678.578 355.531 674.919 362.465 667.603C369.587 660.098 373.147 648.936 373.147 634.115C373.147 619.106 369.587 607.85 362.465 600.346C355.531 592.841 346.722 589.089 336.04 589.089C325.357 589.089 316.455 592.841 309.334 600.346C302.4 607.662 298.932 618.825 298.932 633.833C298.932 648.654 302.4 659.817 309.334 667.321C316.455 674.825 325.357 678.578 336.04 678.578Z" fill="#F9C859"/>
<path d="M473.225 707C454.859 707 440.241 702.685 429.371 694.055C418.501 685.425 412.317 673.981 410.817 659.723H441.459C442.584 666.289 445.863 671.636 451.298 675.763C456.921 679.891 464.323 681.955 473.506 681.955C482.315 681.955 489.062 680.172 493.747 676.608C498.62 672.856 501.056 668.541 501.056 663.663C501.056 656.534 498.151 651.656 492.341 649.03C486.719 646.403 478.379 644.433 467.322 643.12C457.764 641.994 449.049 639.837 441.178 636.648C433.494 633.271 427.403 628.768 422.905 623.14C418.407 617.324 416.159 610.101 416.159 601.471C416.159 589.277 420.938 579.427 430.496 571.923C440.054 564.419 453.36 560.667 470.414 560.667C487.469 560.667 500.681 564.513 510.052 572.205C519.422 579.896 524.857 590.402 526.357 603.722H497.683C496.933 598.094 494.028 593.686 488.968 590.496C483.908 587.119 477.63 585.431 470.133 585.431C462.449 585.431 456.358 586.932 451.86 589.933C447.363 592.748 445.114 596.5 445.114 601.19C445.114 611.321 455.983 617.512 477.723 619.763C488.031 620.889 497.214 622.858 505.273 625.672C513.332 628.299 519.704 632.52 524.389 638.336C529.074 643.964 531.417 651.937 531.417 662.256C531.604 670.698 529.168 678.296 524.108 685.05C519.235 691.804 512.394 697.151 503.586 701.09C494.965 705.03 484.845 707 473.225 707Z" fill="#F9C859"/>
</svg>
