<svg height="512pt" viewBox="0 -16 512.00101 512" width="512pt" xmlns="http://www.w3.org/2000/svg"><path d="m504.429688 246.074219v209.933593c0 9.082032-5.757813 16.445313-12.859376 16.445313h-194.179687v-226.378906zm0 0" fill="#fc9086"/><path d="m491.570312 118.597656h-194.179687v54.242188c5.6875-4.890625 13.082031-7.855469 21.171875-7.855469 17.945312 0 32.496094 14.550781 32.496094 32.496094 0 17.949219-14.550782 32.496093-32.496094 32.496093-8.089844 0-15.484375-2.960937-21.171875-7.851562v73.398438h81.066406c-6.1875-5.917969-10.042969-14.246094-10.042969-23.480469 0-17.945313 14.546876-32.496094 32.496094-32.496094 17.945313 0 32.496094 14.550781 32.496094 32.496094 0 9.234375-3.859375 17.5625-10.042969 23.480469h81.0625v-164.070313c.003907-7.101563-5.753906-12.855469-12.855469-12.855469zm0 0" fill="#5e8ee1"/><path d="m474.144531 246.074219v209.933593c0 9.082032-5.757812 16.445313-12.859375 16.445313h30.285156c7.101563 0 12.859376-7.363281 12.859376-16.445313v-209.933593zm0 0" fill="#f57a73"/><path d="m491.570312 118.597656h-30.285156c7.101563 0 12.859375 5.753906 12.859375 12.855469v164.070313h30.285157v-164.070313c0-7.101563-5.757813-12.855469-12.859376-12.855469zm0 0" fill="#467bff"/><path d="m233.402344 63.539062c-7.003906 0-13.488282 2.222657-18.792969 5.996094v-61.960937h-194.179687c-7.101563 0-12.859376 5.753906-12.859376 12.855469v164.070312h79.253907c-5.117188 5.742188-8.230469 13.308594-8.230469 21.605469 0 17.949219 14.546875 32.5 32.496094 32.5 17.945312 0 32.496094-14.550781 32.496094-32.5 0-8.292969-3.113282-15.859375-8.230469-21.605469h79.253906v-61.960938c5.304687 3.769532 11.789063 5.996094 18.792969 5.996094 17.949218 0 32.496094-14.550781 32.496094-32.5.003906-17.945312-14.546876-32.496094-32.496094-32.496094zm0 0" fill="#ffec56"/><path d="m314.34375 354.519531c-6.210938 0-12.015625 1.746094-16.953125 4.769531v-63.765624h-86.375c3.457031 5.164062 5.476563 11.375 5.476563 18.054687 0 17.949219-14.550782 32.496094-32.496094 32.496094-17.949219 0-32.496094-14.546875-32.496094-32.496094 0-6.679687 2.015625-12.890625 5.472656-18.054687h-66.621094v164.074218c0 7.097656 5.757813 12.855469 12.859376 12.855469h194.179687v-57.710937c4.9375 3.023437 10.742187 4.769531 16.953125 4.769531 17.949219 0 32.5-14.546875 32.5-32.496094 0-17.945313-14.550781-32.496094-32.5-32.496094zm0 0" fill="#aceded"/><g fill="#f9cd45"><path d="m203.117188 63.539062c4.046874 0 7.917968.746094 11.492187 2.097657v-58.0625h-30.285156v37.800781c0 10.199219 8.386719 18.230469 18.585937 18.167969.070313-.003907.136719-.003907.207032-.003907zm0 0"/><path d="m122.84375 184.5c-7.132812 0-12.269531 6.730469-10.527344 13.648438.644532 2.546874.984375 5.210937.984375 7.957031 0 12.480469-7.035156 23.308593-17.351562 28.753906 5.40625 2.855469 11.710937 4.234375 18.386719 3.585937 15.214843-1.480468 27.507812-13.6875 29.074218-28.894531.992188-9.636719-2.238281-18.519531-8.054687-25.050781zm0 0"/><path d="m203.117188 128.535156c-.070313 0-.140626 0-.207032-.003906-10.199218-.0625-18.585937 7.96875-18.585937 18.167969v37.800781h30.285156v-58.0625c-3.574219 1.351562-7.445313 2.097656-11.492187 2.097656zm0 0"/><path d="m233.402344 63.539062c-5.464844 0-10.601563 1.367188-15.121094 3.753907 10.304688 5.449219 17.332031 16.273437 17.332031 28.742187 0 12.472656-7.027343 23.292969-17.332031 28.742188 4.519531 2.386718 9.65625 3.753906 15.121094 3.753906 17.949218 0 32.5-14.546875 32.5-32.496094 0-17.945312-14.550782-32.496094-32.5-32.496094zm0 0"/></g><path d="m314.34375 354.519531c-5.46875 0-10.621094 1.355469-15.144531 3.742188 10.320312 5.445312 17.355469 16.273437 17.355469 28.753906s-7.035157 23.308594-17.355469 28.753906c4.523437 2.386719 9.675781 3.742188 15.144531 3.742188 17.949219 0 32.5-14.546875 32.5-32.496094s-14.550781-32.496094-32.5-32.496094zm0 0" fill="#66d6e6"/><path d="m151.160156 206.105469c0-4.835938-.875-9.582031-2.539062-14.03125h65.988281c4.179687 0 7.570313-3.390625 7.570313-7.574219v-49.988281c3.613281 1.054687 7.382812 1.59375 11.222656 1.59375 22.09375 0 40.070312-17.976563 40.070312-40.070313 0-22.089844-17.976562-40.066406-40.070312-40.066406-3.839844 0-7.609375.539062-11.222656 1.59375v-49.992188c0-4.179687-3.390626-7.570312-7.570313-7.570312h-194.179687c-11.265626 0-20.429688 9.167969-20.429688 20.429688v164.070312c0 4.183594 3.390625 7.574219 7.570312 7.574219h65.988282c-1.664063 4.449219-2.539063 9.195312-2.539063 14.03125 0 22.09375 17.976563 40.070312 40.070313 40.070312s40.070312-17.976562 40.070312-40.070312zm-64.996094 0c0-6.113281 2.242188-12 6.3125-16.566407 1.984376-2.230468 2.476563-5.414062 1.257813-8.136718-1.222656-2.722656-3.925781-4.472656-6.910156-4.472656h-71.679688v-156.5c0-2.914063 2.371094-5.285157 5.285157-5.285157h186.609374v54.390625c0 2.832032 1.582032 5.425782 4.097657 6.726563s5.546875 1.085937 7.859375-.554688c4.230468-3.007812 9.214844-4.597656 14.410156-4.597656 13.742188 0 24.925781 11.183594 24.925781 24.925781 0 13.746094-11.183593 24.925782-24.925781 24.925782-5.195312 0-10.179688-1.589844-14.410156-4.59375-2.308594-1.640626-5.34375-1.855469-7.859375-.558594-2.515625 1.300781-4.097657 3.894531-4.097657 6.730468v54.390626h-71.679687c-2.984375 0-5.691406 1.75-6.910156 4.472656-1.222657 2.722656-.730469 5.90625 1.253906 8.136718 4.070313 4.566407 6.3125 10.453126 6.3125 16.566407 0 13.746093-11.179687 24.925781-24.925781 24.925781-13.742188 0-24.925782-11.179688-24.925782-24.925781zm0 0"/><path d="m491.570312 111.023438h-122.300781c-4.183593 0-7.574219 3.390624-7.574219 7.574218 0 4.179688 3.390626 7.570313 7.574219 7.570313h122.300781c2.914063 0 5.285157 2.371093 5.285157 5.285156v156.5h-59.140625c2.140625-4.949219 3.265625-10.332031 3.265625-15.90625 0-22.09375-17.976563-40.070313-40.070313-40.070313s-40.066406 17.976563-40.066406 40.070313c0 5.574219 1.121094 10.957031 3.261719 15.90625h-59.144531v-52.785156c4.332031 1.5625 8.929687 2.382812 13.601562 2.382812 22.09375 0 40.066406-17.976562 40.066406-40.070312s-17.972656-40.066407-40.066406-40.066407c-4.671875 0-9.269531.820313-13.601562 2.382813v-33.628906h34.023437c4.179687 0 7.570313-3.390625 7.570313-7.574219 0-4.179688-3.390626-7.570312-7.570313-7.570312h-41.59375c-4.179687 0-7.570313 3.390624-7.570313 7.570312v54.246094c0 2.957031 1.722657 5.644531 4.414063 6.878906 2.6875 1.234375 5.851563.789062 8.09375-1.140625 4.515625-3.882813 10.28125-6.023437 16.234375-6.023437 13.746094 0 24.925781 11.183593 24.925781 24.925781 0 13.742187-11.179687 24.925781-24.925781 24.925781-5.953125 0-11.71875-2.140625-16.234375-6.023438-2.242187-1.929687-5.40625-2.375-8.09375-1.140624-2.691406 1.234374-4.414063 3.921874-4.414063 6.882812v65.824219h-78.804687c-2.796875 0-5.363281 1.539062-6.679687 4.007812-1.316407 2.464844-1.167969 5.453125.386718 7.777344 2.746094 4.101563 4.199219 8.886719 4.199219 13.84375 0 13.742187-11.183594 24.921875-24.925781 24.921875-13.746094 0-24.925782-11.179688-24.925782-24.921875 0-4.957031 1.449219-9.742187 4.195313-13.84375 1.554687-2.320313 1.703125-5.3125.386719-7.777344-1.316406-2.464843-3.882813-4.007812-6.679688-4.007812h-66.621094c-4.179687 0-7.570312 3.390625-7.570312 7.574219v70.769531c0 4.179687 3.390625 7.570312 7.570312 7.570312 4.183594 0 7.574219-3.390625 7.574219-7.570312v-63.199219h47.386719c-.917969 3.390625-1.386719 6.910156-1.386719 10.480469 0 22.09375 17.972657 40.070312 40.066407 40.070312s40.070312-17.976562 40.070312-40.070312c0-3.570313-.46875-7.089844-1.386719-10.480469h67.140625v56.191406c0 2.742188 1.480469 5.269532 3.871094 6.605469 2.390625 1.339844 5.320312 1.285156 7.65625-.148437 3.902344-2.390626 8.398438-3.65625 13-3.65625 13.742188 0 24.925781 11.183593 24.925781 24.925781 0 13.746093-11.183593 24.925781-24.925781 24.925781-4.601562 0-9.097656-1.261719-13-3.65625-2.335938-1.429688-5.261719-1.488281-7.65625-.148438-2.390625 1.339844-3.871094 3.867188-3.871094 6.605469v50.140625h-186.605468c-2.914063 0-5.285157-2.371094-5.285157-5.289062v-63.011719c0-4.179687-3.390625-7.570313-7.574219-7.570313-4.179687 0-7.570312 3.390626-7.570312 7.570313v63.011719c0 11.265625 9.164062 20.433594 20.429688 20.433594h388.359374c11.265626 0 20.429688-9.167969 20.429688-20.433594v-328.136719c0-11.265625-9.164062-20.429687-20.429688-20.429687zm0 353.859374h-186.609374v-38.910156c3.054687.734375 6.207031 1.109375 9.382812 1.109375 22.09375 0 40.070312-17.972656 40.070312-40.066406s-17.976562-40.066406-40.070312-40.066406c-3.179688 0-6.328125.375-9.382812 1.109375v-44.964844h73.496093c3.089844 0 5.871094-1.878906 7.023438-4.75 1.152343-2.871094.445312-6.152344-1.792969-8.292969-4.96875-4.75-7.703125-11.148437-7.703125-18.003906 0-13.746094 11.179687-24.925781 24.925781-24.925781 13.742188 0 24.925782 11.179687 24.925782 24.925781 0 6.855469-2.738282 13.253906-7.707032 18.007813-2.234375 2.136718-2.945312 5.417968-1.792968 8.289062 1.152343 2.871094 3.933593 4.75 7.027343 4.75h73.492188v156.5c0 2.917969-2.371094 5.289062-5.285157 5.289062zm0 0"/></svg>