<svg id="Layer_1" enable-background="new 0 0 511.956 511.956" height="512" viewBox="0 0 511.956 511.956" width="512" xmlns="http://www.w3.org/2000/svg"><path d="m438.098 285.015v48.44c0 21.97-18.74 41.69-48.45 55.17.04.1.02-1.91.02 41.71 0 40.66-64.19 73.62-143.38 73.62-79.18 0-143.37-32.96-143.37-73.62v-95.91c0-8.67 2.91-16.979 8.27-24.71-5.36-7.72-8.27-16.04-8.27-24.7v-33.05c-18.24-12.35-29.06-27.75-29.06-44.45v-48.44c0-16.69 10.82-32.09 29.06-44.44v-33.06c0-40.66 64.19-73.62 143.37-73.62 79.19 0 143.38 32.96 143.38 73.62v48.44c0 16.7-10.83 32.1-29.07 44.45 0 17.894-.094 17.67.01 17.67 15.65 10.6 25.84 23.44 28.41 37.42 30.08 13.49 49.08 33.34 49.08 55.46z" fill="#ffb446"/><path d="m389.018 229.555c30.08 13.49 49.08 33.34 49.08 55.46 0 47.809-84.174 79.893-167.59 72.58 67.66-5.91 119.16-36.16 119.16-72.58 0-52.803.231-50.73-.65-55.46z" fill="#fedf84"/><path d="m246.288 310.205c-66.92 0-123.14-23.55-138.94-55.39 86.093 52.671 253.25 20.906 253.25-47.3 0-15.563-.09-15.38.01-15.38 71.29 48.286 4.08 118.07-114.32 118.07z" fill="#fedf84"/><path d="m246.288 7.955c79.19 0 143.38 32.96 143.38 73.62 0 40.67-64.19 73.63-143.38 73.63-79.18 0-143.37-32.96-143.37-73.63 0-40.66 64.19-73.62 143.37-73.62zm93 73.62c0-18.72-41.64-33.9-93-33.9s-93 15.18-93 33.9c0 18.73 41.64 33.91 93 33.91s93-15.18 93-33.91z" fill="#fedf84"/><path d="m389.668 81.575v48.44c0 20.892-15.905 35.961-33.49 47.3-.797 0-16.804 12.13-52.2 20.12 30.84-12.335 55.24-38.5 59.15-73.17 16.71-12.04 26.54-26.77 26.54-42.69z" fill="#fba930"/><path d="m360.598 174.464v33.06c0 36.96-49.286 59.207-85.69 67.42 30.841-12.338 55.239-38.499 59.15-73.17 10.1-7.28 17.69-15.54 22.1-24.45.1.001 1.585-1.019 4.44-2.86z" fill="#fba930"/><path d="m246.288 203.645c44.12 0 83.59-10.24 109.89-26.33-15.8 31.84-72.02 55.39-138.95 55.39-119.42 0-184.956-70.237-114.31-118.07v15.38c0 40.66 64.19 73.63 143.37 73.63z" fill="#fedf84"/><path d="m276.048 406.445v.02c-110.017 11.919-202.257-42.817-164.86-96.75 13.221 19.076 40.81 31.024 40.81 30.77 6.31 34.19 58.15 61.57 124.05 65.96z" fill="#fed66b"/><path d="m194.558 109.755c-12.591-3.753-21.218-15.437-21.08-28.466.141-13.314 9.402-24.996 22.44-28.213-56.267 13.226-56.912 43.108-1.36 56.679z" fill="#fba930"/><path d="m194.458 150.234c-53.57-10.66-91.54-37.38-91.54-68.66 0-30.73 36.67-57.07 88.77-68.09-28.37 7.32-57.994 34.794-59.96 62.97-2.25 32.251 26.03 65.311 62.73 73.78z" fill="#fee59b"/><path d="m207.508 232.545c-113.2-3.68-173.3-71.39-104.59-117.91v15.38c0 22.582 20.641 37.793 18.37 36.09 10.526 40.255 45.801 63.219 86.22 66.44z" fill="#fee59b"/><path d="m236.948 310.055c25.213-2.66 47.441-17.248 58.46-40.99 38.05-12.5 65.19-34.06 65.19-61.55 0-15.563-.09-15.38.01-15.38 73.242 49.612.107 121.929-123.66 117.92z" fill="#fed66b"/><path d="m237.038 310.055c79.676 2.606 148.718-28.578 152.64-70.41.05 6.77-.01 19.47-.01 45.37 0 36.42-51.5 66.67-119.16 72.58 84.842 7.438 167.59-25.631 167.59-72.58v48.44c0 21.97-18.74 41.69-48.45 55.17-69.838 26.39-141.477 22.273-190.52-.32-.435-.147-3.168 5.79 37.91-78.25z" fill="#fba930"/><path d="m389.668 430.335c0 62.309-144.23 97.38-237.67 55.46l15.56-4.7c27.51-8.3 46.96-32.83 48.77-61.51l.82-12.96c29.735 3.162 58.9.096 58.9-.18 35.65 2.06 74.9-3.2 113.6-17.82.04.1.02-1.911.02 41.71z" fill="#fba930"/><g fill="#2c2c3d"><path d="m196.501 61.16c4.486-1.025 7.043-5.427 6.002-9.698-1.047-4.293-5.421-6.916-9.707-5.866-4.299 1.023-6.953 5.337-5.93 9.635 1.025 4.306 5.347 6.952 9.635 5.929z"/><path d="m347.291 81.58c0-27.512-50.81-41.906-101-41.906-8.961 0-17.844.451-26.401 1.341-4.395.457-7.587 4.39-7.13 8.784s4.385 7.598 8.784 7.13c58.165-6.048 109.747 10.78 109.747 24.651 0 10.049-32.252 25.906-85 25.906-52.683 0-85-15.842-85-25.906 0-2.662 2.482-5.874 6.99-9.043 3.615-2.541 4.485-7.531 1.944-11.146-2.542-3.615-7.533-4.484-11.146-1.944-11.396 8.012-13.789 16.458-13.789 22.133.001 55.634 202.001 55.838 202.001 0z"/><path d="m434.941 253.725c-2.655-3.533-7.672-4.243-11.201-1.592-3.533 2.653-4.245 7.669-1.592 11.201 5.278 7.027 7.955 14.322 7.955 21.683 0 25.994-33.106 49.037-79.566 59.564 24.24-12.268 47.128-32.289 47.128-59.564 0-53.243.332-51.673-.995-58.026-.904-4.324-5.142-7.095-9.468-6.194-4.324.904-7.098 5.143-6.194 9.468 8.146 38.928-58.583 71.94-134.718 71.94-39.561 0-76.536-8.806-101.841-22.905 96.642 28.131 224.154-6.58 224.154-71.783v-28.896c18.88-13.834 29.063-30.661 29.063-48.604v-48.437c0-22.816-16.457-43.832-46.339-59.178-92.707-47.606-256.411-15.354-256.411 59.178v28.911c-19.031 13.954-29.063 30.684-29.063 48.589v48.438c0 17.942 10.183 34.77 29.063 48.604 0 29.367-1.722 38.691 6.804 53.636-4.512 7.91-6.804 16.185-6.804 24.667v95.906c0 74.189 163.181 107.052 256.411 59.178 29.882-15.346 46.339-36.361 46.339-59.178v-36.67c24.956-12.333 48.438-32.577 48.438-60.205v-48.438c-.001-10.905-3.757-21.433-11.163-31.293zm-53.275 19.95v11.342c0 35.572-61.994 65.625-135.375 65.625-73.382 0-135.375-30.057-135.375-65.625v-11.338c54.534 58.93 215.387 59.575 270.75-.004zm0-143.658c0 23.696-28.317 39.683-25.543 37.817-24.823 16.701-65.222 27.808-109.832 27.808-73.381 0-135.375-30.053-135.375-65.625v-11.342c55.244 59.45 215.799 59.135 270.75 0zm-135.375-114.062c73.381 0 135.375 30.053 135.375 65.625s-61.994 65.625-135.375 65.625-135.375-30.053-135.375-65.625 61.994-65.625 135.375-65.625zm-151.343 115.499c1.937 63.698 127.184 98.561 224.123 70.346-25.305 14.099-62.281 22.905-101.843 22.905-94.647 0-165.964-49.141-122.28-93.251zm-13.095 76.063v-11.342c55.469 59.693 216.33 58.805 270.75.005v11.337c0 35.572-61.994 65.625-135.375 65.625s-135.375-30.053-135.375-65.625zm63.239 138.556c5.28 18.98 22.462 36.129 48.922 48.688-55.033-11.551-91.88-40.332-81.285-70.759 9.184 9.256 20.558 16.413 32.363 22.071zm101.199 149.882c-73.381 0-135.375-30.053-135.375-65.625v-10.373c34.631 37.268 106.402 47.661 157.686 43.668 4.405-.343 7.698-4.191 7.354-8.597-.342-4.405-4.188-7.695-8.597-7.354-76.123 5.925-156.443-22.619-156.443-65.781v-10.373c35.952 38.689 111.875 48.635 165.387 42.952 33.084 2.13 67.981-1.373 98.565-11.521-8.144 11.823-23.309 22.573-43.874 30.743-4.105 1.631-6.112 6.282-4.48 10.389 1.631 4.105 6.281 6.112 10.389 4.48 19.094-7.586 34.324-17.482 44.764-28.765v10.532c-.001 35.572-61.995 65.625-135.376 65.625zm183.812-162.5c0 54.581-139.509 89.004-228.719 47.097-15.62-7.337-27.326-16.175-34.366-25.756 31.989 10.455 68.771 13.744 103.433 10.819 52.714 4.478 124.977-6.186 159.652-43.501z"/><path d="m303.188 442.258c-10.126 2.431-6.643 17.965 3.741 15.557 4.306-.993 6.99-5.289 5.996-9.594-.927-4.021-4.879-7.019-9.737-5.963z"/></g></svg>