<svg id="Capa_1" enable-background="new 0 0 512.417 512.417" height="512" viewBox="0 0 512.417 512.417" width="512" xmlns="http://www.w3.org/2000/svg"><g><path d="m103.567 334.718h-76.553l-.002-19.169c-.001-7.673-2.506-15.154-7.215-21.212-7.578-9.75-12.09-22.002-12.09-35.307v-102.171c0-7.951 6.445-14.396 14.396-14.396 7.951 0 14.396 6.445 14.396 14.396v45.298-64.531c0-7.951 6.445-14.396 14.396-14.396 7.951 0 14.396 6.445 14.396 14.396v64.531-81.721c0-7.951 6.445-14.396 14.396-14.396 7.951 0 14.396 6.445 14.396 14.396v81.721-64.531c0-7.951 6.445-14.396 14.396-14.396 7.951 0 14.396 6.445 14.396 14.396v79.213l4.835-8.374c6.27-10.861 20.158-14.582 31.019-8.311 2.91 1.68 3.907 5.402 2.227 8.312l-44.926 77.814c-1.545 2.871-3.327 5.596-5.319 8.149-4.694 6.015-7.14 13.481-7.141 21.112z" fill="#f1d0a5"/><path d="m110.972 378.866h-91.363v-41.9c0-1.242 1.007-2.248 2.248-2.248h86.867c1.242 0 2.248 1.007 2.248 2.248z" fill="#75cef9"/><path d="m114.936 378.866h-99.29c-.46 0-.833.373-.833.833v124.384c0 .46.373.833.833.833h99.29c.46 0 .833-.373.833-.833v-124.384c0-.46-.373-.833-.833-.833z" fill="#e7a561"/><path d="m275.035 236.178h-76.553l-.002-19.169c-.001-7.673-2.506-15.154-7.215-21.212-7.578-9.75-12.09-22.002-12.09-35.307v-102.17c0-7.951 6.445-14.396 14.396-14.396 7.951 0 14.396 6.445 14.396 14.396v45.298-64.533c0-7.951 6.445-14.396 14.396-14.396 7.951 0 14.396 6.445 14.396 14.396v64.531-81.72c0-7.951 6.445-14.396 14.396-14.396 7.951 0 14.396 6.445 14.396 14.396v81.721-64.532c0-7.951 6.445-14.396 14.396-14.396 7.951 0 14.396 6.445 14.396 14.396v79.213l4.835-8.374c6.27-10.861 20.158-14.582 31.019-8.311 2.91 1.68 3.907 5.402 2.227 8.312l-44.926 77.814c-1.545 2.871-3.327 5.596-5.319 8.149-4.694 6.015-7.14 13.481-7.141 21.112z" fill="#f9a58e"/><path d="m282.44 280.326h-91.363v-41.9c0-1.242 1.007-2.248 2.248-2.248h86.867c1.242 0 2.248 1.007 2.248 2.248z" fill="#dd636e"/><path d="m286.403 280.326h-99.29c-.46 0-.833.373-.833.833v222.925c0 .46.373.833.833.833h99.29c.46 0 .833-.373.833-.833v-222.925c.001-.46-.372-.833-.833-.833z" fill="#665e66"/><path d="m446.502 349.718h-76.553l-.002-19.169c-.001-7.673-2.506-15.154-7.215-21.212-7.578-9.75-12.09-22.002-12.09-35.307v-102.171c0-7.951 6.445-14.396 14.396-14.396 7.951 0 14.396 6.445 14.396 14.396v45.298-64.531c0-7.951 6.445-14.396 14.396-14.396 7.951 0 14.396 6.445 14.396 14.396v64.531-81.721c0-7.951 6.445-14.396 14.396-14.396 7.951 0 14.396 6.445 14.396 14.396v81.721-64.531c0-7.951 6.445-14.396 14.396-14.396 7.951 0 14.396 6.445 14.396 14.396v79.213l4.835-8.374c6.271-10.861 20.158-14.582 31.019-8.311 2.91 1.68 3.907 5.402 2.227 8.312l-44.926 77.814c-1.545 2.871-3.327 5.596-5.319 8.149-4.694 6.015-7.14 13.481-7.141 21.112z" fill="#c38959"/><path d="m453.907 393.866h-91.363v-41.9c0-1.242 1.007-2.248 2.248-2.248h86.867c1.242 0 2.248 1.007 2.248 2.248z" fill="#ffe07d"/><path d="m27.012 315.549.002 19.169h76.553l.003-19.178c0-.274.004-.548.01-.822h-76.578c.006.277.01.553.01.831z" fill="#f1b986"/><path d="m198.48 217.009.002 19.169h76.553l.002-19.178c0-.274.004-.548.01-.822h-76.578c.007.276.011.553.011.831z" fill="#df9380"/><path d="m369.947 330.549.002 19.169h76.553l.003-19.178c0-.274.004-.548.01-.822h-76.578c.006.277.01.553.01.831z" fill="#b17a4a"/><path d="m457.871 393.866h-99.29c-.46 0-.833.373-.833.833v109.384c0 .46.373.833.833.833h99.29c.46 0 .833-.373.833-.833v-109.384c0-.46-.373-.833-.833-.833z" fill="#c6c1c8"/><path d="m114.936 378.866h-39.167v59.083c0 25.939-21.028 46.968-46.968 46.968h-13.989v19.167c0 .46.373.833.833.833h99.29c.46 0 .833-.373.833-.833v-124.385c.001-.46-.372-.833-.832-.833z" fill="#e49542"/><path d="m286.403 280.326h-39.167v157.624c0 25.939-21.028 46.968-46.968 46.968h-13.988v19.167c0 .46.373.833.833.833h99.29c.46 0 .833-.373.833-.833v-222.926c.001-.46-.372-.833-.833-.833z" fill="#544f57"/><path d="m457.871 393.866h-39.167v44.083c0 25.939-21.028 46.968-46.968 46.968h-13.989v19.167c0 .46.373.833.833.833h99.29c.46 0 .833-.373.833-.833v-109.385c.001-.46-.372-.833-.832-.833z" fill="#afaab4"/><path d="m19.512 315.55.001 11.953c-4.247 1.052-7.405 4.895-7.405 9.463v35.188c-2.832 1.333-4.797 4.213-4.797 7.545v124.384c0 4.595 3.738 8.333 8.333 8.333h99.291c4.595 0 8.333-3.738 8.333-8.333v-124.384c0-3.332-1.965-6.212-4.797-7.545v-35.188c0-4.568-3.158-8.411-7.404-9.463l.002-11.962c.001-6.052 1.973-11.911 5.553-16.499 2.229-2.856 4.232-5.919 5.956-9.105l44.873-77.723c3.744-6.487 1.513-14.811-4.974-18.556-6.985-4.034-15.125-5.107-22.922-3.018-3.324.891-6.416 2.311-9.182 4.189v-6.328c0-4.142-3.357-7.5-7.5-7.5s-7.5 3.358-7.5 7.5v26.309l-2.936 5.078c-11.021-3.253-23.246-.354-31.651 8.052-12.454 12.455-12.454 32.721 0 45.176 2.928 2.928 7.677 2.93 10.606 0 2.93-2.929 2.93-7.677.001-10.606-6.606-6.607-6.606-17.357 0-23.963 5.424-5.426 13.841-6.533 20.468-2.692 3.581 2.079 8.18.853 10.254-2.736.804-1.391 11.283-19.514 12.088-20.905 2.031-3.518 5.311-6.034 9.234-7.085 3.465-.929 7.065-.616 10.281.868-45.143 78.19-44.211 76.573-44.294 76.727-1.336 2.482-2.894 4.867-4.628 7.09-5.628 7.21-8.728 16.347-8.729 25.725l-.002 11.679h-61.551l-.001-11.67c-.001-9.351-3.124-18.518-8.793-25.814-6.878-8.849-10.513-19.466-10.513-30.704v-102.17c0-3.802 3.094-6.896 6.896-6.896s6.896 3.094 6.896 6.896v45.298c0 4.142 3.357 7.5 7.5 7.5s7.5-3.358 7.5-7.5v-64.532c0-3.802 3.094-6.896 6.896-6.896s6.896 3.094 6.896 6.896v64.532c0 4.142 3.357 7.5 7.5 7.5s7.5-3.358 7.5-7.5v-81.721c0-3.802 3.094-6.896 6.896-6.896s6.896 3.094 6.896 6.896v81.721c0 4.142 3.357 7.5 7.5 7.5s7.5-3.358 7.5-7.5v-64.532c0-3.802 3.094-6.896 6.896-6.896s6.896 3.094 6.896 6.896v15.877c0 4.142 3.357 7.5 7.5 7.5s7.5-3.358 7.5-7.5v-15.877c0-12.074-9.822-21.896-21.896-21.896-2.512 0-4.927.425-7.176 1.208-1.681-10.416-10.733-18.396-21.616-18.396s-19.937 7.98-21.617 18.396c-2.249-.783-4.663-1.208-7.175-1.208-11.559 0-21.055 9.002-21.844 20.364-2.185-.733-4.521-1.13-6.948-1.13-12.074 0-21.896 9.823-21.896 21.896v102.17c0 14.604 4.727 28.404 13.669 39.909 3.633 4.676 5.635 10.576 5.636 16.611zm83.96 26.668v29.148h-76.363v-29.148zm4.797 155.199h-85.957v-111.051h85.957z"/><path d="m279.946 17.189c-2.512 0-4.926.425-7.175 1.207-1.681-10.416-10.734-18.396-21.617-18.396s-19.937 7.981-21.616 18.397c-2.249-.782-4.664-1.208-7.176-1.208-11.559 0-21.054 9.003-21.843 20.364-2.185-.733-4.521-1.13-6.949-1.13-12.073 0-21.896 9.823-21.896 21.896v102.17c0 14.604 4.727 28.404 13.668 39.909 3.635 4.676 5.637 10.576 5.638 16.611l.001 11.953c-4.247 1.052-7.405 4.895-7.405 9.463v35.188c-2.832 1.333-4.797 4.213-4.797 7.545v54.452c0 4.142 3.357 7.5 7.5 7.5s7.5-3.358 7.5-7.5v-47.785h85.957v209.591h-85.956v-126.805c0-4.142-3.357-7.5-7.5-7.5s-7.5 3.358-7.5 7.5v133.473c0 4.595 3.738 8.333 8.333 8.333h99.29c4.596 0 8.334-3.738 8.334-8.333v-222.925c0-3.331-1.965-6.212-4.797-7.545v-35.188c0-4.568-3.158-8.411-7.405-9.463l.001-11.962c.001-6.052 1.973-11.911 5.552-16.497 2.231-2.857 4.235-5.922 5.958-9.11l44.873-77.72c3.743-6.487 1.513-14.811-4.974-18.556-6.986-4.034-15.124-5.107-22.922-3.018-3.324.891-6.416 2.311-9.182 4.189v-57.204c.001-12.073-9.821-21.896-21.895-21.896zm-5.006 226.489v29.148h-76.363v-29.148zm50.248-136.22c-45.144 78.19-44.224 76.592-44.296 76.728-1.335 2.48-2.892 4.865-4.627 7.088-5.628 7.21-8.728 16.347-8.729 25.725l-.001 11.679h-61.554l-.001-11.67c-.001-9.352-3.124-18.519-8.794-25.814-6.877-8.848-10.512-19.465-10.512-30.704v-102.171c0-3.802 3.094-6.896 6.896-6.896 3.803 0 6.896 3.094 6.896 6.896v45.297c0 4.142 3.357 7.5 7.5 7.5s7.5-3.358 7.5-7.5v-64.531c0-3.802 3.094-6.896 6.896-6.896 3.803 0 6.896 3.094 6.896 6.896v64.531c0 4.142 3.357 7.5 7.5 7.5s7.5-3.358 7.5-7.5v-81.72c0-3.802 3.094-6.896 6.896-6.896 3.803 0 6.896 3.094 6.896 6.896v81.721c0 4.142 3.357 7.5 7.5 7.5s7.5-3.358 7.5-7.5v-64.532c0-3.802 3.094-6.896 6.896-6.896 3.803 0 6.896 3.094 6.896 6.896v77.185l-2.936 5.078c-11.022-3.255-23.245-.354-31.65 8.052-6.034 6.033-9.357 14.056-9.357 22.588s3.323 16.555 9.357 22.588c2.927 2.929 7.677 2.929 10.606 0s2.929-7.678-.001-10.606c-3.2-3.201-4.963-7.456-4.963-11.982s1.763-8.781 4.964-11.982c5.425-5.425 13.841-6.533 20.468-2.691 1.722.998 3.77 1.269 5.694.758 1.923-.513 3.563-1.77 4.56-3.494.832-1.44 11.255-19.466 12.088-20.906 3.955-6.847 12.466-9.46 19.516-6.215z"/><path d="m422.622 113.541c-10.883 0-19.936 7.98-21.616 18.396-2.249-.782-4.664-1.208-7.176-1.208-11.559 0-21.055 9.002-21.844 20.364-2.185-.733-4.521-1.13-6.948-1.13-12.074 0-21.896 9.823-21.896 21.896v34.318c0 4.142 3.357 7.5 7.5 7.5s7.5-3.358 7.5-7.5v-34.318c0-3.802 3.094-6.896 6.896-6.896s6.896 3.094 6.896 6.896v45.298c0 4.142 3.357 7.5 7.5 7.5s7.5-3.358 7.5-7.5v-64.532c0-3.802 3.094-6.896 6.896-6.896s6.896 3.094 6.896 6.896v64.532c0 4.142 3.357 7.5 7.5 7.5s7.5-3.358 7.5-7.5v-81.721c0-3.802 3.094-6.896 6.896-6.896 3.803 0 6.896 3.094 6.896 6.896v81.721c0 4.142 3.357 7.5 7.5 7.5s7.5-3.358 7.5-7.5v-64.532c0-3.802 3.094-6.896 6.896-6.896 3.803 0 6.896 3.094 6.896 6.896v77.186l-2.936 5.078c-11.025-3.256-23.248-.353-31.652 8.052-12.454 12.455-12.454 32.721 0 45.176 2.928 2.928 7.677 2.93 10.606 0 2.93-2.929 2.93-7.677.001-10.606-6.606-6.607-6.606-17.357 0-23.963 5.426-5.426 13.843-6.531 20.469-2.691 3.583 2.075 8.179.855 10.254-2.736.84-1.453 11.246-19.45 12.087-20.905 3.953-6.849 12.467-9.459 19.516-6.218-45.143 78.19-44.213 76.575-44.295 76.729-1.333 2.477-2.89 4.862-4.627 7.088-5.628 7.21-8.728 16.346-8.729 25.725l-.001 11.679h-61.555l-.001-11.67c-.001-9.353-3.124-18.52-8.793-25.814-6.878-8.849-10.513-19.466-10.513-30.704v-32.852c0-4.142-3.357-7.5-7.5-7.5s-7.5 3.358-7.5 7.5v32.852c0 14.604 4.727 28.404 13.669 39.909 3.634 4.676 5.636 10.575 5.637 16.611l.001 11.954c-4.247 1.052-7.405 4.895-7.405 9.463v35.189c-2.831 1.333-4.796 4.213-4.796 7.544v109.384c0 4.595 3.738 8.333 8.333 8.333h99.29c4.595 0 8.333-3.738 8.333-8.333v-109.386c0-3.331-1.965-6.211-4.796-7.544v-35.189c0-4.568-3.157-8.411-7.405-9.463l.001-11.962c.001-6.052 1.973-11.911 5.553-16.499 2.233-2.861 4.236-5.924 5.957-9.107l44.871-77.719c3.754-6.502 1.531-14.803-4.972-18.558-10.356-5.978-22.815-5.109-32.104 1.193v-57.226c0-12.074-9.822-21.896-21.896-21.896-2.512 0-4.926.425-7.175 1.208-1.679-10.416-10.733-18.396-21.615-18.396zm-52.578 272.825v-29.148h76.364v29.148zm81.16 111.051h-85.956v-96.051h85.956z"/></g></svg>